<?xml version="1.0" standalone="no"?>
<!DOCTYPE svg PUBLIC "-//W3C//DTD SVG 20010904//EN"
 "http://www.w3.org/TR/2001/REC-SVG-20010904/DTD/svg10.dtd">
<svg version="1.0" xmlns="http://www.w3.org/2000/svg"
 width="1024.000000pt" height="1024.000000pt" viewBox="0 0 1024.000000 1024.000000"
 preserveAspectRatio="xMidYMid meet">
<metadata>
Created by potrace 1.14, written by Peter Selinger 2001-2017
</metadata>
<g transform="translate(0.000000,1024.000000) scale(0.100000,-0.100000)"
fill="#000000" stroke="none">
<path d="M0 5120 l0 -5120 5120 0 5120 0 0 5120 0 5120 -5120 0 -5120 0 0
-5120z m5411 2781 c104 -28 238 -83 323 -133 94 -55 222 -184 261 -263 40 -82
47 -212 16 -295 -28 -74 -95 -149 -173 -191 -62 -34 -65 -34 -189 -34 l-125 0
-49 -42 -48 -41 29 -56 29 -56 251 0 251 0 64 -41 c35 -23 90 -61 121 -85 31
-24 62 -44 68 -44 6 0 27 12 46 26 25 19 34 34 34 55 0 97 102 234 216 290
197 97 447 -3 525 -209 28 -76 24 -222 -9 -295 -43 -97 -163 -193 -264 -212
l-38 -7 0 -319 0 -319 183 0 183 0 18 59 c9 32 29 76 44 97 l27 39 5 467 5
467 85 -57 85 -58 3 -343 2 -344 58 7 c171 19 326 -62 399 -210 34 -70 37 -81
37 -167 0 -79 -4 -101 -27 -151 -35 -77 -84 -136 -144 -174 -181 -115 -404
-63 -527 123 l-37 55 -200 0 -199 0 0 -473 0 -473 -372 -251 c-779 -522 -1535
-1029 -1580 -1058 -26 -16 -47 -33 -47 -37 -1 -8 403 -268 417 -268 5 0 464
303 1018 674 814 543 1008 677 1005 692 -2 11 -4 62 -5 114 -1 85 2 102 28
157 32 69 97 137 167 175 38 20 58 23 149 23 90 0 112 -3 151 -23 159 -79 232
-250 185 -432 -25 -97 -126 -277 -218 -387 -82 -98 -146 -143 -748 -538 -91
-60 -363 -239 -604 -398 -241 -159 -474 -310 -516 -337 -150 -94 -288 -155
-422 -187 -103 -24 -339 -24 -428 1 -114 31 -201 65 -279 107 -74 41 -299 187
-393 256 l-48 35 0 328 0 329 143 99 c78 54 248 170 377 258 129 87 296 200
370 251 208 142 397 270 735 497 171 115 318 216 328 224 15 14 17 42 17 316
l0 301 -435 289 c-239 159 -439 294 -445 301 -7 9 55 55 248 183 141 95 264
172 271 172 14 0 69 -33 256 -155 249 -163 451 -293 473 -304 l22 -12 0 199 0
198 -35 13 c-52 19 -131 85 -160 136 -15 25 -29 45 -32 45 -4 0 -35 -16 -70
-36 -74 -41 -50 -50 -223 80 l-115 86 -220 -2 -219 -3 -21 -60 c-28 -83 -57
-127 -118 -180 -73 -64 -141 -88 -247 -89 -75 -1 -93 3 -152 31 -200 94 -276
313 -182 523 35 78 121 160 199 189 67 25 188 28 260 7 l48 -15 48 46 c27 26
49 50 49 54 0 4 -13 28 -30 52 -16 24 -37 75 -47 113 -24 91 -50 107 -169 101
-71 -3 -89 -8 -150 -41 -74 -41 -461 -298 -1249 -831 -269 -182 -547 -368
-617 -415 l-128 -84 0 -866 0 -865 221 -140 c122 -77 225 -141 230 -143 5 -2
10 45 11 105 l3 108 195 131 c107 73 342 232 523 355 l327 223 0 409 0 409
-28 -19 c-16 -10 -121 -81 -234 -157 l-205 -140 -11 -72 c-5 -40 -21 -97 -35
-128 -34 -74 -116 -159 -186 -193 -51 -25 -66 -28 -166 -28 -97 0 -115 3 -155
24 -106 56 -163 123 -200 232 -18 52 -21 79 -17 144 10 166 70 252 265 383 65
43 293 196 509 340 l392 262 203 -133 c112 -73 258 -168 326 -212 l123 -80 -4
-575 c-4 -634 -3 -629 -69 -752 -50 -93 -124 -156 -443 -369 -165 -111 -382
-257 -483 -326 l-182 -124 6 -400 c4 -219 4 -399 0 -399 -14 0 -70 33 -273
163 -325 209 -709 462 -798 526 -193 140 -329 338 -391 566 -18 66 -19 116
-19 850 0 779 0 780 23 870 75 295 228 501 512 691 74 50 288 194 475 320 748
507 1164 782 1240 821 83 42 180 77 275 99 87 20 365 11 461 -15z"/>
</g>
</svg>
